<?xml version="1.0" encoding="UTF-8" standalone="no"?><!DOCTYPE svg PUBLIC "-//W3C//DTD SVG 1.1//EN" "http://www.w3.org/Graphics/SVG/1.1/DTD/svg11.dtd"><svg width="100%" height="100%" viewBox="0 0 482 216" version="1.1" xmlns="http://www.w3.org/2000/svg" xmlns:xlink="http://www.w3.org/1999/xlink" xml:space="preserve" xmlns:serif="http://www.serif.com/" style="fill-rule:evenodd;clip-rule:evenodd;stroke-linejoin:round;stroke-miterlimit:1.41421;"><g id="MS-symbol"><path d="M394.942,104.589l-10.858,0l0,25.004l-7.38,0l0,-25.004l-5.182,0l0,-5.965l5.182,0l0,-4.308c0,-3.254 1.059,-5.92 3.178,-7.998c2.119,-2.079 4.835,-3.118 8.149,-3.118c0.883,0 1.667,0.045 2.35,0.135c0.682,0.091 1.285,0.227 1.807,0.407l0,6.296c-0.241,-0.14 -0.663,-0.311 -1.265,-0.512c-0.603,-0.2 -1.296,-0.301 -2.078,-0.301c-1.528,0 -2.702,0.477 -3.526,1.431c-0.824,0.954 -1.235,2.365 -1.235,4.232l0,3.736l10.858,0l0,-6.959l7.321,-2.229l0,9.188l7.381,0l0,5.965l-7.381,0l0,14.49c0,1.909 0.346,3.254 1.039,4.037c0.693,0.783 1.782,1.175 3.269,1.175c0.421,0 0.928,-0.1 1.521,-0.301c0.592,-0.201 1.109,-0.441 1.552,-0.723l0,6.025c-0.463,0.261 -1.231,0.502 -2.305,0.723c-1.074,0.221 -2.134,0.331 -3.178,0.331c-3.073,0 -5.378,-0.817 -6.914,-2.455c-1.537,-1.637 -2.305,-4.102 -2.305,-7.396l0,-15.906Zm-48.407,9.731c0,3.233 0.733,5.703 2.199,7.411c1.466,1.707 3.565,2.56 6.296,2.56c2.652,0 4.67,-0.853 6.055,-2.56c1.386,-1.708 2.079,-4.238 2.079,-7.592c0,-3.334 -0.718,-5.849 -2.154,-7.547c-1.436,-1.697 -3.45,-2.545 -6.04,-2.545c-2.671,0 -4.745,0.888 -6.221,2.666c-1.476,1.777 -2.214,4.313 -2.214,7.607m-7.592,0.24c0,-5.121 1.446,-9.177 4.338,-12.17c2.892,-2.993 6.909,-4.489 12.05,-4.489c4.841,0 8.621,1.441 11.343,4.323c2.721,2.883 4.082,6.774 4.082,11.674c0,5.021 -1.447,9.018 -4.338,11.99c-2.892,2.973 -6.829,4.458 -11.81,4.458c-4.8,0 -8.611,-1.41 -11.432,-4.232c-2.822,-2.821 -4.233,-6.673 -4.233,-11.554m-16.417,-7.802c0,1.045 0.331,1.863 0.994,2.456c0.662,0.592 2.128,1.34 4.398,2.243c2.912,1.166 4.956,2.476 6.131,3.932c1.175,1.456 1.762,3.219 1.762,5.287c0,2.912 -1.12,5.252 -3.359,7.019c-2.24,1.768 -5.267,2.651 -9.083,2.651c-1.285,0 -2.706,-0.155 -4.263,-0.467c-1.556,-0.311 -2.877,-0.707 -3.961,-1.19l0,-7.169c1.326,0.924 2.751,1.656 4.278,2.198c1.526,0.543 2.911,0.814 4.157,0.814c1.647,0 2.862,-0.231 3.645,-0.693c0.784,-0.461 1.175,-1.235 1.175,-2.319c0,-1.005 -0.406,-1.853 -1.22,-2.546c-0.813,-0.693 -2.355,-1.492 -4.624,-2.395c-2.691,-1.125 -4.599,-2.39 -5.724,-3.796c-1.125,-1.406 -1.687,-3.193 -1.687,-5.362c0,-2.792 1.109,-5.086 3.329,-6.884c2.218,-1.797 5.096,-2.696 8.631,-2.696c1.084,0 2.3,0.12 3.645,0.361c1.346,0.242 2.47,0.553 3.374,0.934l0,6.929c-0.964,-0.643 -2.089,-1.194 -3.374,-1.657c-1.286,-0.462 -2.561,-0.693 -3.826,-0.693c-1.386,0 -2.465,0.271 -3.238,0.813c-0.774,0.543 -1.16,1.286 -1.16,2.23m-35.066,7.562c0,3.233 0.733,5.703 2.2,7.411c1.465,1.707 3.564,2.56 6.295,2.56c2.652,0 4.67,-0.853 6.055,-2.56c1.386,-1.708 2.079,-4.238 2.079,-7.592c0,-3.334 -0.718,-5.849 -2.154,-7.547c-1.436,-1.697 -3.449,-2.545 -6.039,-2.545c-2.672,0 -4.745,0.888 -6.222,2.666c-1.476,1.777 -2.214,4.313 -2.214,7.607m-7.592,0.24c0,-5.121 1.446,-9.177 4.338,-12.17c2.893,-2.993 6.909,-4.489 12.051,-4.489c4.84,0 8.621,1.441 11.342,4.323c2.721,2.883 4.082,6.774 4.082,11.674c0,5.021 -1.446,9.018 -4.338,11.99c-2.892,2.973 -6.828,4.458 -11.809,4.458c-4.801,0 -8.611,-1.41 -11.433,-4.232c-2.822,-2.821 -4.233,-6.673 -4.233,-11.554m-3.136,-16.448c0.582,0 1.105,0.041 1.567,0.121c0.462,0.08 0.853,0.18 1.175,0.301l0,7.38c-0.382,-0.281 -0.939,-0.546 -1.672,-0.798c-0.733,-0.251 -1.622,-0.376 -2.666,-0.376c-1.788,0 -3.299,0.753 -4.534,2.259c-1.235,1.506 -1.853,3.826 -1.853,6.959l0,15.635l-7.291,0l0,-30.969l7.291,0l0,4.88l0.12,0c0.663,-1.687 1.667,-3.007 3.013,-3.961c1.346,-0.953 2.962,-1.431 4.85,-1.431m-27.956,26.179c1.084,0 2.279,-0.25 3.585,-0.753c1.305,-0.502 2.51,-1.164 3.615,-1.988l0,6.778c-1.165,0.663 -2.485,1.165 -3.962,1.506c-1.475,0.342 -3.098,0.512 -4.865,0.512c-4.559,0 -8.265,-1.44 -11.116,-4.323c-2.852,-2.881 -4.278,-6.562 -4.278,-11.04c0,-4.981 1.456,-9.083 4.369,-12.307c2.911,-3.224 7.038,-4.835 12.381,-4.835c1.366,0 2.746,0.176 4.143,0.527c1.395,0.352 2.504,0.758 3.328,1.22l0,6.989c-1.125,-0.823 -2.274,-1.461 -3.45,-1.913c-1.174,-0.451 -2.375,-0.678 -3.599,-0.678c-2.872,0 -5.192,0.934 -6.959,2.802c-1.768,1.868 -2.652,4.388 -2.652,7.562c0,3.132 0.849,5.573 2.546,7.32c1.697,1.748 4.002,2.621 6.914,2.621m-22.112,5.302l-7.29,0l0,-30.969l7.29,0l0,30.969Zm-8.044,-39.916c0,-1.205 0.437,-2.214 1.311,-3.028c0.874,-0.813 1.913,-1.22 3.118,-1.22c1.285,0 2.35,0.417 3.193,1.25c0.844,0.834 1.266,1.833 1.266,2.998c0,1.185 -0.432,2.179 -1.296,2.982c-0.864,0.804 -1.918,1.205 -3.163,1.205c-1.246,0 -2.295,-0.406 -3.148,-1.219c-0.854,-0.815 -1.281,-1.803 -1.281,-2.968m-6.273,-3.284l0,43.2l-7.501,0l0,-33.861l-0.12,0l-13.407,33.861l-4.97,0l-13.738,-33.861l-0.09,0l0,33.861l-6.929,0l0,-43.2l10.755,0l12.412,32.024l0.18,0l13.105,-32.024l10.303,0Z" style="fill:#737373;fill-rule:nonzero;"/><rect x="71.996" y="71.996" width="34.218" height="34.218" style="fill:#f25022;"/><rect x="109.775" y="71.996" width="34.218" height="34.218" style="fill:#7fba00;"/><rect x="71.996" y="109.775" width="34.218" height="34.218" style="fill:#00a4ef;"/><rect x="109.775" y="109.775" width="34.218" height="34.218" style="fill:#ffb900;"/></g></svg>