<?xml version="1.0" encoding="UTF-8"?>
<svg width="2000px" height="800px" viewBox="0 0 2000 800" version="1.1" xmlns="http://www.w3.org/2000/svg" xmlns:xlink="http://www.w3.org/1999/xlink">
    <!-- Generator: Sketch 49.2 (51160) - http://www.bohemiancoding.com/sketch -->
    <title>Long-Dark</title>
    <desc>Created with Sketch.</desc>
    <defs></defs>
    <g id="Long-Dark" stroke="none" stroke-width="1" fill="none" fill-rule="evenodd">
        <g id="Logo" transform="translate(156.000000, 150.000000)" fill-rule="nonzero">
            <path d="M389.369457,111.612085 C392.084746,111.612085 394.287641,113.913508 394.287641,116.754954 L394.287641,357.482601 C394.287641,360.324046 392.084746,362.62758 389.367442,362.62758 L264.857571,362.62758 C262.142286,362.62758 259.939391,364.929004 259.939391,367.770449 L259.939391,494.857128 C259.939391,497.698576 257.736497,500 255.021211,500 L108.512668,500 C105.795363,500 103.592469,497.698576 103.592469,494.857128 L103.592469,440.951923 C103.592469,437.332085 106.398536,434.397824 109.860225,434.397824 L195.42407,434.397824 C198.141377,434.397824 200.342253,432.094289 200.342253,429.254952 L200.342253,302.168273 C200.342253,299.326827 202.545144,297.023294 205.262451,297.023294 L329.772319,297.023294 C332.489623,297.023294 334.690499,294.721871 334.690499,291.880425 L334.690499,118.166185 C334.690499,114.546347 337.496568,111.612085 340.958258,111.612085 L389.369457,111.612085 Z M64.5133034,65.604285 C61.7980156,65.604285 59.5951222,67.9057085 59.5951222,70.7471547 L59.5951222,381.485751 C59.5951222,385.299662 56.6397757,388.390022 52.9924943,388.390022 L4.9181812,388.390022 C2.20087589,388.390022 0,386.086491 0,383.247154 L0,5.14286968 C0,2.30353309 2.20087589,0 4.9181812,0 L285.774973,0 C288.492277,0 290.693153,2.30353309 290.693153,5.14497913 L290.693153,58.7000141 C290.693153,62.5139223 287.737808,65.604285 284.090524,65.604285 L64.5133034,65.604285 Z" fill="#00E3A0"></path>
            <g id="Text" transform="translate(489.000000, 116.000000)">
                <path d="M1102.07874,27.3741076 C1102.07874,21.4413868 1104.17933,16.3711675 1108.39593,12.1594173 C1112.60097,7.94766701 1118.4595,5.83574619 1125.96767,5.83574619 C1133.657,5.83574619 1139.78918,7.94766701 1144.36809,12.1594173 C1148.94314,16.3711675 1151.23259,21.4413868 1151.23259,27.3741076 C1151.23259,33.5043168 1148.94314,38.530203 1144.36809,42.4517665 C1139.78918,46.3773563 1133.657,48.3401543 1125.96767,48.3401543 C1118.4595,48.3401543 1112.60097,46.3773563 1108.39593,42.4517665 C1104.17933,38.530203 1102.07874,33.5043168 1102.07874,27.3741076 Z M1060.3367,178.424765 L1108.66958,178.424765 L1108.66958,98.0186437 L1060.3367,98.0186437 L1060.3367,66.4285096 L1144.36809,66.4285096 L1144.36809,178.424765 L1195.17158,178.424765 L1195.17158,210.010873 L1060.3367,210.010873 L1060.3367,178.424765 Z" id="i" fill="#00E3A0"></path>
                <path d="M950.820309,181.583379 C959.507895,181.583379 966.021652,179.910768 970.369305,176.557492 C974.713095,173.212276 977.881328,169.6212 979.873998,165.788309 L979.873998,148.562455 C978.062482,148.17957 975.349054,147.744286 971.726016,147.264676 C968.102977,146.789086 964.213992,146.551297 960.055206,146.551297 C956.609458,146.551297 953.171429,146.885817 949.733394,147.554863 C946.291509,148.227935 943.211924,149.275834 940.502353,150.714682 C937.78507,152.149498 935.615103,154.015565 933.984734,156.308851 C932.354365,158.610201 931.541109,161.387135 931.541109,164.639653 C931.541109,170.004091 933.036577,174.167476 936.023656,177.133834 C939.010742,180.104229 943.940388,181.583379 950.820309,181.583379 Z M904.079243,76.1969482 C911.398555,72.7469421 919.874155,69.7846112 929.482917,67.2938315 C939.095534,64.8030579 950.492691,63.5576711 963.674388,63.5576711 C973.19065,63.5576711 981.292381,64.7587249 987.97959,67.1447086 C994.659087,69.5427838 1000.05895,72.940398 1004.1792,77.3415777 C1008.29944,81.7467838 1011.27496,87.0104589 1013.10575,93.1366416 C1014.93269,99.2668508 1015.85001,106.158804 1015.85001,113.812502 C1015.85001,123.574087 1015.5301,131.904889 1014.89029,138.796843 C1014.24662,145.688796 1013.92672,151.814973 1013.92672,157.171352 C1013.92672,161.193673 1014.10787,165.69561 1014.47788,170.669105 C1014.84019,173.353334 1015.1177,175.940845 1015.29885,178.423559 L1033.15195,178.423559 L1033.15195,210.013693 L987.054553,210.013693 L983.446934,190.486489 L982.07866,190.486489 C978.444058,196.423243 973.252317,201.541827 966.522717,205.850309 C959.789254,210.154757 950.693115,212.311011 939.230435,212.311011 C925.582369,212.311011 914.759499,208.482146 906.746417,200.82039 C898.741043,193.166692 894.744134,183.018195 894.744134,170.386977 C894.744134,162.346361 896.150953,155.406043 898.972299,149.56602 C901.789788,143.725998 905.883052,138.937907 911.248235,135.205773 C916.613417,131.469606 923.073221,128.700731 930.62379,126.879003 C938.174359,125.061302 946.584431,124.150435 955.865581,124.150435 C959.137882,124.150435 962.599037,124.34389 966.233639,124.726776 C969.872097,125.109661 974.327668,125.492552 979.608052,125.875438 C979.966503,123.961005 980.147656,122.046573 980.147656,120.13214 L980.147656,114.670977 C980.147656,107.400164 978.15113,102.184849 974.154221,99.0250294 C970.153462,95.8611838 964.240969,94.2853036 956.428311,94.2853036 C947.158724,94.2853036 938.794899,95.5306904 931.344542,98.021464 C923.894184,100.508211 917.623241,102.998985 912.531717,105.485732 L904.079243,76.1969482 Z" id="a" fill="#00E3A0"></path>
                <path d="M830.87506,191.061222 C830.87506,184.362731 832.887,179.050684 836.914742,175.121062 C840.942483,171.199498 846.253707,169.236707 852.844555,169.236707 C859.801561,169.236707 865.293932,171.199498 869.32553,175.121062 C873.349416,179.050684 875.365212,184.362731 875.365212,191.061222 C875.365212,197.763746 873.349416,203.120126 869.32553,207.138414 C865.293932,211.160741 859.801561,213.171898 852.844555,213.171898 C846.253707,213.171898 840.942483,211.160741 836.914742,207.138414 C832.887,203.120126 830.87506,197.763746 830.87506,191.061222" id="dot" fill="#00E3A0"></path>
                <path d="M708.399746,138.221299 C708.399746,144.536912 709.220715,150.380966 710.870353,155.741373 C712.516136,161.101779 714.898095,165.789113 718.012363,169.81144 C721.122781,173.829728 724.87687,176.941182 729.266913,179.141769 C733.664668,181.346388 738.698377,182.446684 744.375757,182.446684 C754.990497,182.446684 763.639538,178.90398 770.322891,171.818564 C777.010095,164.737188 780.351769,153.540786 780.351769,138.221299 C780.351769,125.01374 777.233645,114.341287 771.008953,106.203947 C764.784262,98.0666071 755.907816,93.9959208 744.375757,93.9959208 C739.245687,93.9959208 734.489487,94.8140893 730.095588,96.4383289 C725.697833,98.0666071 721.897497,100.698445 718.698431,104.33788 C715.491652,107.973283 712.974798,112.571951 711.147862,118.121787 C709.309363,123.675655 708.399746,130.374146 708.399746,138.221299 M671.598915,138.221299 C671.598915,126.162402 673.337202,115.441584 676.821489,106.058851 C680.290357,96.6801563 685.235417,88.7362721 691.645118,82.2231716 C698.050957,75.718136 705.697887,70.7889807 714.582041,67.4356995 C723.454631,64.0864569 733.387159,62.4098132 744.375757,62.4098132 C755.907816,62.4098132 766.206501,64.2315472 775.271808,67.8669503 C784.333258,71.5023594 791.976332,76.6249706 798.201023,83.2267371 C804.418002,89.832536 809.139518,97.8328447 812.346291,107.207513 C815.545363,116.59024 817.14875,126.928173 817.14875,138.221299 C817.14875,150.280203 815.410462,161.005054 811.930031,170.383748 C808.453456,179.766481 803.50839,187.710365 797.102546,194.219427 C790.688994,200.728495 783.045926,205.657657 774.16948,209.006899 C765.289177,212.356148 755.360505,214.032786 744.375757,214.032786 C732.839849,214.032786 722.541163,212.211058 713.479713,208.575649 C704.418256,204.944278 696.767476,199.817628 690.550497,193.215868 C684.32195,186.610069 679.604289,178.613793 676.405223,169.235092 C673.19845,159.856392 671.598915,149.522491 671.598915,138.221299" id="o2" fill="#4A4A4A"></path>
                <path d="M573.838131,182.445478 C580.795138,182.445478 586.973575,180.680169 592.373447,177.133431 C597.773318,173.594759 601.300002,168.472142 602.949641,161.769618 L602.949641,100.890694 C600.382678,98.7868325 596.85985,97.2069259 592.373447,96.1509624 C587.887043,95.103064 583.173239,94.5710558 578.23203,94.5710558 C573.286967,94.5710558 568.480658,95.4335574 563.813104,97.1585604 C559.141695,98.8795371 555.025306,101.608106 551.456226,105.340234 C547.887147,109.0764 545.042676,113.90883 542.942084,119.845584 C540.833783,125.778305 539.785414,133.053143 539.785414,141.670099 C539.785414,153.922459 542.710826,163.776743 548.573212,171.245044 C554.431744,178.709312 562.853384,182.445478 573.838131,182.445478 Z M581.2538,8.99798376 L638.644287,8.99798376 L638.644287,133.053143 C638.644287,147.413397 639.376602,161.580189 640.845093,175.553525 C640.845093,176.512751 640.933742,177.471984 641.118746,178.423151 L658.694342,178.423151 L658.694342,210.013291 L614.481699,210.013291 L610.912619,191.634749 L609.814142,191.634749 C607.979499,195.080723 605.508891,198.147844 602.398474,200.82402 C599.2842,203.50825 595.803775,205.849907 591.961037,207.861064 C588.118305,209.872227 583.901702,211.399742 579.330505,212.451667 C574.747746,213.503598 570.172695,214.03158 565.597643,214.03158 C556.990997,214.03158 548.889264,212.596763 541.296298,209.727131 C533.695624,206.853466 527.058524,202.403927 521.384998,196.370443 C515.707618,190.340991 511.22507,182.687299 507.929646,173.401297 C504.634222,164.115295 502.984582,153.152656 502.984582,140.521444 C502.984582,128.269078 504.769122,117.358837 508.342056,107.782648 C511.91499,98.2145239 516.852344,90.1215168 523.169538,83.5157178 C529.486731,76.9099188 536.944797,71.843732 545.551443,68.2969949 C554.154235,64.7583168 563.581846,62.9809218 573.838131,62.9809218 C579.511657,62.9809218 584.865276,63.3194741 589.902845,63.9885137 C594.936553,64.6615919 599.2842,65.7618822 602.949641,67.2934294 L602.949641,40.5881178 L581.2538,40.5881178 L581.2538,8.99798376 Z" id="d" fill="#4A4A4A"></path>
                <path d="M378.85732,138.221299 C378.85732,144.536912 379.685994,150.380966 381.335634,155.741373 C382.977564,161.101779 385.355666,165.789113 388.469938,169.81144 C391.58421,173.829728 395.334442,176.941182 399.732195,179.141769 C404.126094,181.346388 409.155952,182.446684 414.833332,182.446684 C425.451922,182.446684 434.100965,178.90398 440.784316,171.818564 C447.467668,164.737188 450.809344,153.540786 450.809344,138.221299 C450.809344,125.01374 447.691217,114.341287 441.474236,106.203947 C435.249545,98.0666071 426.369244,93.9959208 414.833332,93.9959208 C409.707117,93.9959208 404.950914,94.8140893 400.55316,96.4383289 C396.159261,98.0666071 392.358924,100.698445 389.156003,104.33788 C385.953082,107.973283 383.432371,112.571951 381.605434,118.121787 C379.774643,123.675655 378.85732,130.374146 378.85732,138.221299 M342.060343,138.221299 C342.060343,126.162402 343.798631,115.441584 347.279062,106.058851 C350.755638,96.6801563 355.696847,88.7362721 362.106543,82.2231716 C368.512386,75.718136 376.155458,70.7889807 385.039613,67.4356995 C393.91606,64.0864569 403.848584,62.4098132 414.833332,62.4098132 C426.369244,62.4098132 436.667927,64.2315472 445.72938,67.8669503 C454.790833,71.5023594 462.433905,76.6249706 468.658595,83.2267371 C474.883286,89.832536 479.597091,97.8328447 482.803866,107.207513 C486.002934,116.59024 487.610176,126.928173 487.610176,138.221299 C487.610176,150.280203 485.868033,161.005054 482.387603,170.383748 C478.911026,179.766481 473.969817,187.710365 467.563975,194.219427 C461.154278,200.728495 453.511206,205.657657 444.627051,209.006899 C435.750604,212.356148 425.821934,214.032786 414.833332,214.032786 C403.301274,214.032786 393.002592,212.211058 383.937284,208.575649 C374.879685,204.944278 367.232759,199.817628 361.008069,193.215868 C354.783379,186.610069 350.069573,178.613793 346.866652,169.235092 C343.663731,159.856392 342.060343,149.522491 342.060343,138.221299" id="o" fill="#4A4A4A"></path>
                <path d="M178.39223,178.422749 L212.444947,178.422749 L212.444947,98.0206599 L178.39223,98.0206599 L178.39223,66.4305259 L240.180471,66.4305259 L244.304569,85.3813827 L245.39919,85.3813827 C250.521551,79.0657706 256.383937,73.8020954 262.970931,69.5903452 C269.565634,65.3785949 277.251103,63.2707066 286.04661,63.2707066 C297.027503,63.2707066 305.676546,67.4864832 311.99374,75.9059513 C318.310933,84.3334843 321.467603,98.4035452 321.467603,118.120173 L289.33818,118.120173 C289.33818,111.228219 288.37846,106.202333 286.451311,103.042514 C284.531871,99.8867269 281.46385,98.3068142 277.251103,98.3068142 C269.927938,98.3068142 264.027009,100.221247 259.540607,104.050112 C255.054204,107.878977 251.257721,112.284183 248.147304,117.257671 L248.147304,178.422749 L307.738596,178.422749 L307.738596,210.012883 L178.39223,210.012883 L178.39223,178.422749 Z" id="r" fill="#4A4A4A"></path>
                <path d="M90.2440625,93.9971269 C83.279347,93.9971269 76.9197565,95.8188609 71.1537274,99.454264 C65.3876988,103.093699 61.4062095,108.54681 59.2092599,115.821649 L59.2092599,175.551911 C61.772368,177.663831 65.4763474,179.336437 70.3327619,180.577797 C75.1814685,181.827216 80.0802804,182.443864 85.0253441,182.443864 C90.1477049,182.443864 94.9116169,181.541056 99.3055159,179.719328 C103.69556,177.897594 107.542149,174.979596 110.841428,170.957275 C114.132998,166.938981 116.696106,161.868761 118.526897,155.738552 C120.353834,149.61237 121.275011,142.2408 121.275011,133.627876 C121.275011,120.988599 118.341891,111.227013 112.487213,104.33506 C106.624826,97.4431066 99.2091583,93.9971269 90.2440625,93.9971269 Z M2.91339222,66.4293137 L49.5966422,66.4293137 L53.7168862,83.6632325 L54.8192152,83.6632325 C64.3316214,69.4964345 79.7141219,62.4110254 100.947446,62.4110254 C109.37294,62.4110254 117.108516,63.8015086 124.158025,66.5703777 C131.203681,69.3513442 137.243365,73.7081848 142.280932,79.6368792 C147.314644,85.5736325 151.20363,93.0419269 153.951744,102.037742 C156.699858,111.041616 158.071988,121.851101 158.071988,134.490378 C158.071988,146.742737 156.510998,157.798075 153.404434,167.652359 C150.286307,177.518735 145.80376,185.889838 139.949082,192.781791 C134.086695,199.673744 126.944683,204.941458 118.526897,208.576861 C110.101403,212.212264 100.488785,214.029965 89.6928979,214.029965 C84.0155179,214.029965 78.4344955,213.602747 72.9421217,212.740246 C67.449748,211.877744 62.8669882,210.487261 59.2092599,208.576861 L59.2092599,267.444621 L23.5107575,267.444621 L23.5107575,98.0194477 L2.91339222,98.0194477 L2.91339222,66.4293137 Z" id="p" fill="#4A4A4A"></path>
            </g>
        </g>
    </g>
</svg>