<?xml version="1.0" encoding="UTF-8" standalone="no"?><!DOCTYPE svg PUBLIC "-//W3C//DTD SVG 1.1//EN" "http://www.w3.org/Graphics/SVG/1.1/DTD/svg11.dtd"><svg width="100%" height="100%" viewBox="0 0 1685 500" version="1.1" xmlns="http://www.w3.org/2000/svg" xmlns:xlink="http://www.w3.org/1999/xlink" xml:space="preserve" xmlns:serif="http://www.serif.com/" style="fill-rule:evenodd;clip-rule:evenodd;stroke-linejoin:round;stroke-miterlimit:1.41421;"><g id="Logo"><path d="M387.869,111.612c2.716,0 4.919,2.302 4.919,5.143l0,240.728c0,2.841 -2.203,5.145 -4.921,5.145l-124.509,0c-2.716,0 -4.919,2.301 -4.919,5.142l0,127.087c0,2.842 -2.203,5.143 -4.918,5.143l-146.508,0c-2.718,0 -4.921,-2.301 -4.921,-5.143l0,-53.905c0,-3.62 2.807,-6.554 6.268,-6.554l85.564,0c2.717,0 4.918,-2.304 4.918,-5.143l0,-127.087c0,-2.841 2.203,-5.145 4.92,-5.145l124.51,0c2.718,0 4.918,-2.301 4.918,-5.143l0,-173.714c0,-3.62 2.807,-6.554 6.268,-6.554l48.411,0Zm-324.856,-46.008c-2.715,0 -4.918,2.302 -4.918,5.143l0,310.739c0,3.814 -2.955,6.904 -6.603,6.904l-48.074,0c-2.717,0 -4.918,-2.304 -4.918,-5.143l0,-378.104c0,-2.839 2.201,-5.143 4.918,-5.143l280.857,0c2.717,0 4.918,2.304 4.918,5.145l0,53.555c0,3.814 -2.955,6.904 -6.602,6.904l-219.578,0Z" style="fill:#00e3a0;fill-rule:nonzero;"/><g id="Text"><path id="i" d="M1589.58,143.374c0,-5.933 2.1,-11.003 6.317,-15.215c4.205,-4.211 10.063,-6.323 17.572,-6.323c7.689,0 13.821,2.112 18.4,6.323c4.575,4.212 6.865,9.282 6.865,15.215c0,6.13 -2.29,11.156 -6.865,15.078c-4.579,3.925 -10.711,5.888 -18.4,5.888c-7.508,0 -13.367,-1.963 -17.572,-5.888c-4.217,-3.922 -6.317,-8.948 -6.317,-15.078Zm-41.742,151.051l48.333,0l0,-80.406l-48.333,0l0,-31.59l84.031,0l0,111.996l50.804,0l0,31.586l-134.835,0l0,-31.586Z" style="fill:#00e3a0;fill-rule:nonzero;"/><path id="a" d="M1438.32,297.583c8.688,0 15.202,-1.672 19.549,-5.026c4.344,-3.345 7.512,-6.936 9.505,-10.769l0,-17.226c-1.812,-0.382 -4.525,-0.818 -8.148,-1.297c-3.623,-0.476 -7.512,-0.714 -11.671,-0.714c-3.446,0 -6.884,0.335 -10.322,1.004c-3.441,0.673 -6.521,1.721 -9.231,3.16c-2.717,1.434 -4.887,3.301 -6.517,5.594c-1.631,2.301 -2.444,5.078 -2.444,8.331c0,5.364 1.496,9.527 4.483,12.494c2.987,2.97 7.916,4.449 14.796,4.449Zm-46.741,-105.386c7.32,-3.45 15.795,-6.412 25.404,-8.903c9.613,-2.491 21.01,-3.736 34.191,-3.736c9.517,0 17.618,1.201 24.306,3.587c6.679,2.398 12.079,5.795 16.199,10.197c4.12,4.405 7.096,9.668 8.927,15.795c1.827,6.13 2.744,13.022 2.744,20.676c0,9.761 -0.32,18.092 -0.96,24.984c-0.643,6.892 -0.963,13.018 -0.963,18.374c0,4.023 0.181,8.525 0.551,13.498c0.362,2.684 0.64,5.272 0.821,7.755l17.853,0l0,31.59l-46.097,0l-3.608,-19.528l-1.368,0c-3.635,5.937 -8.827,11.056 -15.556,15.364c-6.734,4.305 -15.83,6.461 -27.293,6.461c-13.648,0 -24.471,-3.829 -32.484,-11.491c-8.005,-7.653 -12.002,-17.802 -12.002,-30.433c0,-8.041 1.407,-14.981 4.228,-20.821c2.818,-5.84 6.911,-10.628 12.276,-14.36c5.365,-3.736 11.825,-6.505 19.376,-8.327c7.55,-1.818 15.96,-2.729 25.242,-2.729c3.272,0 6.733,0.194 10.368,0.577c3.638,0.383 8.094,0.766 13.374,1.148c0.359,-1.914 0.54,-3.828 0.54,-5.743l0,-5.461c0,-7.271 -1.997,-12.486 -5.994,-15.646c-4.001,-3.164 -9.913,-4.74 -17.726,-4.74c-9.269,0 -17.633,1.246 -25.083,3.736c-7.451,2.487 -13.722,4.978 -18.813,7.465l-8.453,-29.289Z" style="fill:#00e3a0;fill-rule:nonzero;"/><path id="dot" d="M1318.38,307.061c0,-6.698 2.012,-12.01 6.04,-15.94c4.027,-3.922 9.339,-5.884 15.93,-5.884c6.957,0 12.449,1.962 16.481,5.884c4.023,3.93 6.039,9.242 6.039,15.94c0,6.703 -2.016,12.059 -6.039,16.077c-4.032,4.023 -9.524,6.034 -16.481,6.034c-6.591,0 -11.903,-2.011 -15.93,-6.034c-4.028,-4.018 -6.04,-9.374 -6.04,-16.077" style="fill:#00e3a0;fill-rule:nonzero;"/><path id="o2" d="M1195.9,254.221c0,6.316 0.821,12.16 2.47,17.52c1.646,5.361 4.028,10.048 7.142,14.07c3.111,4.019 6.865,7.13 11.255,9.331c4.398,2.204 9.431,3.305 15.109,3.305c10.614,0 19.264,-3.543 25.947,-10.628c6.687,-7.082 10.029,-18.278 10.029,-33.598c0,-13.207 -3.118,-23.88 -9.343,-32.017c-6.225,-8.137 -15.101,-12.208 -26.633,-12.208c-5.13,0 -9.887,0.818 -14.28,2.442c-4.398,1.629 -8.199,4.26 -11.398,7.9c-3.206,3.635 -5.723,8.234 -7.55,13.784c-1.839,5.554 -2.748,12.252 -2.748,20.099m-36.801,0c0,-12.059 1.738,-22.779 5.222,-32.162c3.469,-9.379 8.414,-17.323 14.824,-23.836c6.406,-6.505 14.053,-11.434 22.937,-14.787c8.873,-3.35 18.805,-5.026 29.794,-5.026c11.532,0 21.831,1.822 30.896,5.457c9.061,3.635 16.704,8.758 22.929,15.36c6.217,6.606 10.939,14.606 14.145,23.981c3.199,9.382 4.803,19.72 4.803,31.013c0,12.059 -1.739,22.784 -5.219,32.163c-3.477,9.382 -8.422,17.326 -14.827,23.835c-6.414,6.509 -14.057,11.439 -22.934,14.788c-8.88,3.349 -18.808,5.026 -29.793,5.026c-11.536,0 -21.835,-1.822 -30.896,-5.457c-9.062,-3.632 -16.713,-8.758 -22.93,-15.36c-6.228,-6.606 -10.946,-14.602 -14.145,-23.981c-3.207,-9.379 -4.806,-19.713 -4.806,-31.014" style="fill:#4a4a4a;fill-rule:nonzero;"/><path id="d" d="M1061.34,298.445c6.957,0 13.136,-1.765 18.535,-5.312c5.4,-3.538 8.927,-8.661 10.577,-15.363l0,-60.879c-2.567,-2.104 -6.09,-3.684 -10.577,-4.74c-4.486,-1.048 -9.2,-1.58 -14.141,-1.58c-4.945,0 -9.751,0.863 -14.419,2.588c-4.671,1.721 -8.788,4.449 -12.357,8.181c-3.569,3.736 -6.413,8.569 -8.514,14.506c-2.108,5.932 -3.157,13.207 -3.157,21.824c0,12.252 2.926,22.107 8.788,29.575c5.859,7.464 14.28,11.2 25.265,11.2Zm7.416,-173.447l57.39,0l0,124.055c0,14.36 0.733,28.527 2.201,42.501c0,0.959 0.089,1.918 0.274,2.869l17.575,0l0,31.59l-44.212,0l-3.569,-18.378l-1.099,0c-1.835,3.446 -4.305,6.513 -7.416,9.189c-3.114,2.684 -6.594,5.026 -10.437,7.037c-3.843,2.011 -8.059,3.539 -12.63,4.591c-4.583,1.052 -9.158,1.58 -13.733,1.58c-8.607,0 -16.709,-1.435 -24.302,-4.305c-7.6,-2.874 -14.237,-7.323 -19.911,-13.357c-5.677,-6.029 -10.16,-13.683 -13.455,-22.969c-3.296,-9.286 -4.945,-20.248 -4.945,-32.88c0,-12.252 1.784,-23.162 5.357,-32.738c3.573,-9.568 8.51,-17.661 14.828,-24.267c6.317,-6.606 13.775,-11.672 22.381,-15.219c8.603,-3.539 18.031,-5.316 28.287,-5.316c5.674,0 11.027,0.338 16.065,1.008c5.034,0.673 9.381,1.773 13.047,3.304l0,-26.705l-21.696,0l0,-31.59Z" style="fill:#4a4a4a;fill-rule:nonzero;"/><path id="o" d="M866.357,254.221c0,6.316 0.829,12.16 2.479,17.52c1.642,5.361 4.02,10.048 7.134,14.07c3.114,4.019 6.864,7.13 11.262,9.331c4.394,2.204 9.424,3.305 15.101,3.305c10.619,0 19.268,-3.543 25.951,-10.628c6.684,-7.082 10.025,-18.278 10.025,-33.598c0,-13.207 -3.118,-23.88 -9.335,-32.017c-6.224,-8.137 -15.105,-12.208 -26.641,-12.208c-5.126,0 -9.882,0.818 -14.28,2.442c-4.394,1.629 -8.194,4.26 -11.397,7.9c-3.203,3.635 -5.724,8.234 -7.551,13.784c-1.83,5.554 -2.748,12.252 -2.748,20.099m-36.797,0c0,-12.059 1.739,-22.779 5.219,-32.162c3.477,-9.379 8.418,-17.323 14.828,-23.836c6.405,-6.505 14.048,-11.434 22.933,-14.787c8.876,-3.35 18.809,-5.026 29.793,-5.026c11.536,0 21.835,1.822 30.896,5.457c9.062,3.635 16.705,8.758 22.93,15.36c6.224,6.606 10.938,14.606 14.145,23.981c3.199,9.382 4.806,19.72 4.806,31.013c0,12.059 -1.742,22.784 -5.222,32.163c-3.477,9.382 -8.418,17.326 -14.824,23.835c-6.41,6.509 -14.053,11.439 -22.937,14.788c-8.876,3.349 -18.805,5.026 -29.794,5.026c-11.532,0 -21.83,-1.822 -30.896,-5.457c-9.057,-3.632 -16.704,-8.758 -22.929,-15.36c-6.225,-6.606 -10.938,-14.602 -14.141,-23.981c-3.203,-9.379 -4.807,-19.713 -4.807,-31.014" style="fill:#4a4a4a;fill-rule:nonzero;"/><path id="r" d="M665.892,294.423l34.053,0l0,-80.402l-34.053,0l0,-31.59l61.788,0l4.125,18.95l1.094,0c5.123,-6.315 10.985,-11.579 17.572,-15.791c6.595,-4.211 14.28,-6.319 23.076,-6.319c10.981,0 19.63,4.215 25.947,12.635c6.317,8.427 9.474,22.498 9.474,42.214l-32.13,0c0,-6.892 -0.96,-11.918 -2.887,-15.077c-1.919,-3.156 -4.987,-4.736 -9.2,-4.736c-7.323,0 -13.224,1.914 -17.71,5.743c-4.487,3.829 -8.283,8.234 -11.394,13.208l0,61.165l59.592,0l0,31.59l-129.347,0l0,-31.59Z" style="fill:#4a4a4a;fill-rule:nonzero;"/><path id="p" d="M577.744,209.997c-6.965,0 -13.324,1.822 -19.09,5.457c-5.766,3.64 -9.748,9.093 -11.945,16.368l0,59.73c2.563,2.112 6.267,3.784 11.124,5.026c4.848,1.249 9.747,1.866 14.692,1.866c5.123,0 9.887,-0.903 14.281,-2.725c4.39,-1.821 8.236,-4.739 11.535,-8.762c3.292,-4.018 5.855,-9.088 7.686,-15.218c1.827,-6.127 2.748,-13.498 2.748,-22.111c0,-12.639 -2.933,-22.401 -8.788,-29.293c-5.862,-6.892 -13.278,-10.338 -22.243,-10.338Zm-87.331,-27.568l46.684,0l4.12,17.234l1.102,0c9.513,-14.167 24.895,-21.252 46.128,-21.252c8.426,0 16.162,1.391 23.211,4.159c7.046,2.781 13.085,7.138 18.123,13.067c5.034,5.937 8.923,13.405 11.671,22.401c2.748,9.004 4.12,19.813 4.12,32.452c0,12.253 -1.561,23.308 -4.668,33.162c-3.118,9.867 -7.6,18.238 -13.455,25.13c-5.862,6.892 -13.004,12.159 -21.422,15.795c-8.426,3.635 -18.038,5.453 -28.834,5.453c-5.677,0 -11.259,-0.427 -16.751,-1.29c-5.492,-0.862 -10.075,-2.253 -13.733,-4.163l0,58.868l-35.698,0l0,-169.426l-20.598,0l0,-31.59Z" style="fill:#4a4a4a;fill-rule:nonzero;"/></g></g></svg>